<svg xmlns="http://www.w3.org/2000/svg" viewBox="0 0 1024 1024" width="1024" height="1024"><defs><linearGradient id="m" gradientUnits="userSpaceOnUse" x1="300" y1="300" x2="520" y2="760"><stop offset="0%" stop-color="#fff4cf"/><stop offset="30%" stop-color="#ffc862"/><stop offset="60%" stop-color="#f0992e"/><stop offset="85%" stop-color="#b96516"/><stop offset="100%" stop-color="#6f3d0e"/></linearGradient></defs><path d="M 512.0 512.0 L 511.2 511.3 L 510.4 510.5 L 509.7 509.7 L 509.1 508.9 L 508.7 508.0 L 508.4 507.1 L 508.2 506.1 L 508.1 505.1 L 508.2 504.1 L 508.4 503.1 L 508.7 502.2 L 509.2 501.2 L 509.8 500.2 L 510.6 499.2 L 511.5 498.3 L 512.6 497.3 L 513.7 496.5 L 515.0 495.6 L 516.5 494.8 L 518.0 494.1 L 519.7 493.4 L 521.5 492.8 L 523.4 492.3 L 525.3 491.8 L 527.4 491.5 L 529.6 491.2 L 531.8 491.0 L 534.1 490.9 L 536.5 490.9 L 538.9 491.0 L 541.4 491.2 L 543.9 491.6 L 546.4 492.0 L 548.9 492.5 L 551.4 493.2 L 553.9 494.0 L 556.4 494.9 L 558.8 495.9 L 561.2 497.0 L 563.5 498.3 L 565.8 499.7 L 568.0 501.1 L 570.0 502.7 L 572.0 504.4 L 573.9 506.2 L 575.6 508.1 L 577.2 510.1 L 578.7 512.2 L 580.0 514.4 L 581.1 516.7 L 582.0 519.0 L 582.8 521.4 L 583.4 523.9 L 583.7 526.4 L 583.9 529.0 L 583.8 531.7 L 583.6 534.3 L 583.1 537.0 L 582.3 539.7 L 581.4 542.5 L 580.2 545.2 L 578.7 547.9 L 577.0 550.6 L 575.1 553.3 L 572.9 556.0 L 570.5 558.6 L 567.9 561.1 L 565.3 563.4 L 562.9 565.3 L 561.2 566.6 L 559.9 567.5 L 558.8 568.2 L 557.7 568.9 L 556.5 569.5 L 555.4 570.2 L 554.2 570.9 L 553.0 571.5 L 551.8 572.2 L 550.5 572.8 L 549.3 573.4 L 548.0 574.0 L 546.7 574.6 L 545.4 575.2 L 544.1 575.8 L 542.8 576.3 L 541.4 576.9 L 540.0 577.4 L 538.6 578.0 L 537.2 578.5 L 535.8 579.0 L 534.3 579.5 L 532.8 580.0 L 531.3 580.4 L 529.8 580.9 L 528.3 581.3 L 526.8 581.8 L 525.2 582.2 L 523.7 582.6 L 522.1 583.0 L 520.5 583.4 L 518.9 583.7 L 517.3 584.1 L 515.6 584.4 L 514.0 584.7 L 512.3 585.0 L 510.6 585.3 L 508.9 585.5 L 507.2 585.8 L 505.5 586.0 L 503.8 586.2 L 502.0 586.4 L 500.3 586.6 L 498.5 586.8 L 496.7 587.0 L 495.0 587.1 L 493.2 587.2 L 491.4 587.3 L 489.6 587.4 L 487.7 587.4 L 485.9 587.5 L 484.1 587.5 L 482.2 587.5 L 480.4 587.5 L 478.5 587.5 L 476.6 587.4 L 474.8 587.4 L 472.9 587.3 L 471.0 587.2 L 469.1 587.1 L 467.2 586.9 L 465.3 586.8 L 463.4 586.6 L 461.5 586.4 L 459.6 586.2 L 457.7 585.9 L 455.8 585.7 L 453.9 585.4 L 452.0 585.1 L 450.1 584.7 L 448.1 584.4 L 446.2 584.0 L 444.3 583.7 L 442.4 583.3 L 440.5 582.8 L 438.6 582.4 L 436.7 581.9 L 434.8 581.4 L 432.9 580.9 L 431.0 580.4 L 429.1 579.8 L 427.3 579.3 L 425.4 578.7 L 423.5 578.1 L 421.7 577.4 L 419.8 576.8 L 418.0 576.1 L 416.1 575.4 L 414.3 574.7 L 412.5 573.9 L 410.7 573.2 L 408.9 572.4 L 407.1 571.6 L 405.3 570.8 L 403.5 569.9 L 401.8 569.1 L 400.1 568.2 L 398.3 567.3 L 396.6 566.3 L 394.9 565.4 L 393.3 564.4 L 391.6 563.4 L 390.0 562.4 L 388.3 561.4 L 386.7 560.3 L 385.1 559.3 L 383.6 558.2 L 382.0 557.1 L 380.5 555.9 L 378.9 554.8 L 377.5 553.6 L 376.0 552.4 L 374.5 551.2 L 373.1 550.0 L 371.7 548.7 L 370.3 547.5 L 368.9 546.2 L 367.6 544.9 L 366.3 543.5 L 365.0 542.2 L 363.8 540.8 L 362.5 539.5 L 361.3 538.1 L 360.1 536.7 L 359.0 535.2 L 357.9 533.8 L 356.8 532.3 L 355.7 530.8 L 354.7 529.3 L 353.7 527.8 L 352.7 526.3 L 351.8 524.8 L 350.9 523.2 L 350.0 521.6 L 349.2 520.0 L 348.3 518.4 L 347.6 516.8 L 346.8 515.2 L 346.1 513.6 L 345.5 511.9 L 344.8 510.2 L 344.2 508.5 L 343.7 506.8 L 343.1 505.1 L 342.6 503.4 L 342.2 501.7 L 341.8 499.9 L 341.4 498.2 L 341.1 496.4 L 340.8 494.6 L 340.5 492.9 L 340.3 491.1 L 340.1 489.3 L 340.0 487.5 L 339.9 485.6 L 339.8 483.8 L 339.8 482.0 L 339.9 480.1 L 339.9 478.3 L 340.1 476.4 L 340.2 474.6 L 340.4 472.7 L 340.7 470.8 L 341.0 469.0 L 341.3 467.1 L 341.7 465.2 L 342.1 463.3 L 342.6 461.4 L 343.1 459.5 L 343.7 457.6 L 344.3 455.7 L 344.9 453.8 L 345.6 451.9 L 346.4 450.0 L 347.2 448.1 L 348.0 446.2 L 348.9 444.3 L 349.8 442.4 L 350.8 440.5 L 351.8 438.7 L 352.9 436.8 L 354.0 434.9 L 355.2 433.0 L 356.4 431.1 L 357.7 429.3 L 359.0 427.4 L 360.4 425.5 L 361.8 423.7 L 363.2 421.8 L 364.7 420.0 L 366.3 418.2 L 367.9 416.4 L 369.5 414.5 L 371.2 412.7 L 373.0 410.9 L 374.8 409.2 L 376.6 407.4 L 378.5 405.6 L 380.5 403.9 L 382.4 402.2 L 384.5 400.4 L 386.6 398.7 L 388.7 397.0 L 390.9 395.4 L 393.1 393.7 L 395.4 392.1 L 397.7 390.4 L 400.0 388.8 L 402.4 387.2 L 404.9 385.6 L 407.4 384.1 L 409.9 382.5 L 412.5 381.0 L 415.2 379.5 L 417.8 378.0 L 420.6 376.6 L 423.3 375.1 L 426.1 373.7 L 429.0 372.3 L 431.9 371.0 L 434.8 369.6 L 437.8 368.3 L 440.9 367.0 L 443.9 365.8 L 447.0 364.5 L 450.2 363.3 L 453.4 362.1 L 456.6 360.9 L 459.9 359.8 L 463.2 358.7 L 466.5 357.6 L 469.9 356.6 L 473.3 355.6 L 476.8 354.6 L 480.2 353.6 L 483.8 352.7 L 487.3 351.8 L 490.9 350.9 L 494.6 350.1 L 498.2 349.3 L 501.9 348.6 L 505.6 347.8 L 509.4 347.1 L 513.2 346.5 L 517.0 345.9 L 520.8 345.3 L 524.7 344.7 L 528.6 344.2 L 532.5 343.7 L 536.5 343.3 L 540.5 342.9 L 544.5 342.5 L 548.5 342.2 L 552.6 341.9 L 556.6 341.7 L 560.7 341.5 L 564.8 341.3 L 569.0 341.2 L 573.1 341.1 L 577.3 341.1 L 581.5 341.1 L 585.7 341.1 L 589.9 341.2 L 594.1 341.3 L 598.4 341.5 L 602.6 341.7 L 606.9 342.0 L 611.2 342.3 L 615.5 342.6 L 619.8 343.0 L 624.1 343.4 L 628.4 343.9 L 632.7 344.4 L 637.0 345.0 L 641.3 345.6 L 645.7 346.3 L 650.0 347.0 L 654.3 347.7 L 658.6 348.5 L 663.0 349.4 L 667.3 350.3 L 671.6 351.2 L 675.9 352.2 L 680.2 353.2 L 684.5 354.3 L 688.8 355.4 L 693.1 356.6 L 697.4 357.8 L 701.6 359.1 L 705.9 360.4 L 710.1 361.8 L 714.3 363.2 L 718.5 364.6 L 722.7 366.2 L 726.9 367.7 L 731.0 369.3 L 735.2 371.0 L 739.3 372.7 L 743.3 374.4 L 747.4 376.2 L 751.4 378.0 L 755.4 379.9 L 759.4 381.9 L 763.4 383.9 L 767.3 385.9 L 771.1 388.0 L 775.0 390.1 L 778.8 392.3 L 782.6 394.5 L 786.3 396.7 L 790.0 399.1 L 793.7 401.4 L 797.3 403.8 L 800.9 406.3 L 804.5 408.8 L 807.9 411.3 L 811.4 413.9 L 814.8 416.5 L 818.2 419.2 L 821.5 421.9 L 824.7 424.6 L 827.9 427.4 L 831.1 430.3 L 834.2 433.2 L 837.3 436.1 L 840.2 439.1 L 843.2 442.1 L 846.1 445.2 L 848.9 448.2 L 851.6 451.4 L 854.3 454.6 L 857.0 457.8 L 859.5 461.0 L 862.0 464.3 L 864.5 467.6 L 866.9 471.0 L 869.2 474.4 L 871.4 477.9 L 873.5 481.3 L 875.6 484.8 L 877.7 488.4 L 879.6 492.0 L 881.5 495.6 L 883.3 499.2 L 885.0 502.9 L 886.6 506.6 L 888.2 510.3 L 889.7 514.1 L 891.1 517.9 L 892.4 521.7 L 893.6 525.6 L 894.8 529.5 L 895.8 533.4 L 896.8 537.3 L 897.7 541.2 L 898.5 545.2 L 899.2 549.2 L 899.8 553.3 L 900.4 557.3 L 900.9 561.4 L 900.9 561.4 L 901.3 557.2 L 901.5 553.0 L 901.6 548.8 L 901.5 544.6 L 901.4 540.4 L 901.2 536.3 L 900.8 532.1 L 900.4 527.8 L 899.8 523.6 L 899.2 519.5 L 898.5 515.3 L 897.6 511.1 L 896.7 506.9 L 895.6 502.7 L 894.5 498.6 L 893.3 494.4 L 892.0 490.3 L 890.5 486.2 L 889.0 482.0 L 887.4 478.0 L 885.8 473.9 L 884.0 469.8 L 882.1 465.8 L 880.2 461.8 L 878.1 457.8 L 876.0 453.9 L 873.8 450.0 L 871.5 446.1 L 869.2 442.2 L 866.7 438.4 L 864.2 434.6 L 861.6 430.8 L 858.9 427.0 L 856.1 423.3 L 853.3 419.7 L 850.4 416.0 L 847.4 412.5 L 844.4 408.9 L 841.3 405.4 L 838.1 401.9 L 834.9 398.5 L 831.6 395.1 L 828.2 391.8 L 824.8 388.5 L 821.3 385.2 L 817.7 382.0 L 814.1 378.8 L 810.5 375.7 L 806.8 372.7 L 803.0 369.6 L 799.2 366.7 L 795.3 363.7 L 791.4 360.9 L 787.4 358.0 L 783.4 355.3 L 779.4 352.5 L 775.3 349.9 L 771.1 347.2 L 766.9 344.7 L 762.7 342.1 L 758.5 339.7 L 754.2 337.3 L 749.9 334.9 L 745.5 332.6 L 741.1 330.3 L 736.7 328.1 L 732.2 326.0 L 727.8 323.9 L 723.2 321.9 L 718.7 319.9 L 714.2 317.9 L 709.6 316.1 L 705.0 314.2 L 700.4 312.5 L 695.7 310.8 L 691.1 309.1 L 686.4 307.5 L 681.7 306.0 L 677.0 304.5 L 672.3 303.0 L 667.6 301.6 L 662.8 300.3 L 658.1 299.1 L 653.3 297.8 L 648.6 296.7 L 643.8 295.6 L 639.0 294.5 L 634.2 293.5 L 629.5 292.6 L 624.7 291.7 L 619.9 290.8 L 615.1 290.0 L 610.3 289.3 L 605.6 288.6 L 600.8 288.0 L 596.0 287.5 L 591.3 286.9 L 586.5 286.5 L 581.8 286.1 L 577.0 285.7 L 572.3 285.4 L 567.6 285.1 L 562.9 284.9 L 558.2 284.8 L 553.5 284.7 L 548.8 284.6 L 544.2 284.6 L 539.5 284.7 L 534.9 284.8 L 530.3 284.9 L 525.7 285.1 L 521.2 285.4 L 516.6 285.7 L 512.1 286.0 L 507.6 286.4 L 503.1 286.8 L 498.7 287.3 L 494.3 287.9 L 489.9 288.5 L 485.5 289.1 L 481.1 289.8 L 476.8 290.5 L 472.5 291.2 L 468.2 292.1 L 464.0 292.9 L 459.8 293.8 L 455.6 294.8 L 451.4 295.8 L 447.3 296.8 L 443.2 297.9 L 439.1 299.0 L 435.1 300.2 L 431.1 301.4 L 427.1 302.6 L 423.2 303.9 L 419.3 305.2 L 415.4 306.6 L 411.6 308.0 L 407.8 309.5 L 404.0 311.0 L 400.3 312.5 L 396.6 314.1 L 393.0 315.7 L 389.4 317.4 L 385.8 319.1 L 382.3 320.8 L 378.8 322.6 L 375.3 324.4 L 371.9 326.2 L 368.5 328.1 L 365.2 330.1 L 361.9 332.0 L 358.6 334.0 L 355.4 336.1 L 352.2 338.2 L 349.1 340.3 L 346.0 342.5 L 342.9 344.7 L 340.0 347.0 L 337.3 349.6 L 334.6 352.2 L 332.0 354.8 L 329.5 357.5 L 327.0 360.2 L 324.5 362.9 L 322.1 365.6 L 319.8 368.4 L 317.5 371.2 L 315.3 374.0 L 313.1 376.9 L 311.0 379.8 L 308.9 382.7 L 306.9 385.6 L 305.0 388.5 L 303.1 391.5 L 301.2 394.5 L 299.5 397.5 L 297.8 400.6 L 296.1 403.7 L 294.5 406.8 L 293.0 409.9 L 291.6 413.0 L 290.2 416.1 L 288.8 419.3 L 287.6 422.5 L 286.4 425.7 L 285.2 428.9 L 284.2 432.2 L 283.2 435.4 L 282.2 438.7 L 281.4 442.0 L 280.6 445.2 L 279.9 448.5 L 279.2 451.8 L 278.6 455.1 L 278.1 458.4 L 277.7 461.8 L 277.3 465.1 L 277.0 468.4 L 276.8 471.7 L 276.7 475.0 L 276.6 478.3 L 276.6 481.6 L 276.7 484.9 L 276.8 488.1 L 277.0 491.4 L 277.3 494.7 L 277.6 497.9 L 278.0 501.1 L 278.5 504.3 L 279.0 507.5 L 279.6 510.6 L 280.3 513.8 L 281.0 516.9 L 281.8 520.0 L 282.7 523.0 L 283.6 526.0 L 284.6 529.0 L 285.6 532.0 L 286.7 534.9 L 287.8 537.9 L 289.0 540.7 L 290.3 543.6 L 291.6 546.4 L 292.9 549.2 L 294.3 551.9 L 295.7 554.6 L 297.2 557.3 L 298.7 559.9 L 300.3 562.5 L 301.9 565.1 L 303.5 567.6 L 305.2 570.1 L 306.9 572.6 L 308.6 575.0 L 310.4 577.4 L 312.2 579.7 L 314.1 582.1 L 316.0 584.3 L 317.9 586.6 L 320.0 588.6 L 322.2 590.6 L 324.5 592.4 L 326.7 594.3 L 329.0 596.1 L 331.3 597.8 L 333.6 599.6 L 335.9 601.2 L 338.2 602.9 L 340.6 604.5 L 343.0 606.0 L 345.3 607.5 L 347.7 609.0 L 350.2 610.4 L 352.6 611.8 L 355.0 613.2 L 357.4 614.5 L 359.9 615.8 L 362.4 617.1 L 364.8 618.3 L 367.3 619.4 L 369.8 620.6 L 372.3 621.7 L 374.8 622.8 L 377.3 623.8 L 379.8 624.8 L 382.3 625.8 L 384.8 626.7 L 387.4 627.6 L 389.9 628.4 L 392.4 629.3 L 395.0 630.1 L 397.5 630.8 L 400.1 631.6 L 402.6 632.2 L 405.1 632.9 L 407.7 633.5 L 410.2 634.1 L 412.8 634.7 L 415.3 635.2 L 417.9 635.7 L 420.4 636.2 L 423.0 636.6 L 425.5 637.1 L 428.0 637.4 L 430.6 637.8 L 433.1 638.1 L 435.6 638.4 L 438.1 638.6 L 440.6 638.8 L 443.2 639.0 L 445.7 639.2 L 448.2 639.3 L 450.6 639.4 L 453.1 639.5 L 455.6 639.6 L 458.1 639.6 L 460.5 639.6 L 463.0 639.5 L 465.4 639.4 L 467.9 639.3 L 470.3 639.2 L 472.7 639.0 L 475.1 638.9 L 477.5 638.6 L 479.8 638.4 L 482.2 638.1 L 484.6 637.8 L 486.9 637.5 L 489.2 637.2 L 491.5 636.8 L 493.8 636.4 L 496.1 636.0 L 498.4 635.5 L 500.6 635.0 L 502.8 634.5 L 505.0 634.0 L 507.2 633.4 L 509.4 632.8 L 511.6 632.2 L 513.7 631.6 L 515.8 630.9 L 517.9 630.2 L 520.0 629.5 L 522.1 628.8 L 524.1 628.0 L 526.2 627.2 L 528.2 626.4 L 530.1 625.6 L 532.1 624.8 L 534.0 623.9 L 535.9 623.0 L 537.8 622.1 L 539.7 621.2 L 541.5 620.2 L 543.4 619.2 L 545.2 618.2 L 546.9 617.2 L 548.7 616.2 L 550.4 615.1 L 552.1 614.0 L 553.7 613.0 L 555.4 611.8 L 557.0 610.7 L 558.5 609.6 L 560.1 608.4 L 561.6 607.2 L 563.1 606.0 L 564.6 604.8 L 566.0 603.6 L 567.4 602.3 L 568.8 601.1 L 570.1 599.8 L 571.5 598.5 L 572.7 597.2 L 574.0 595.9 L 575.3 594.5 L 576.8 593.0 L 578.7 591.0 L 581.1 588.6 L 584.0 585.6 L 587.2 582.1 L 590.5 578.2 L 593.7 574.1 L 596.5 569.8 L 599.0 565.4 L 601.2 560.9 L 603.0 556.3 L 604.5 551.7 L 605.6 547.0 L 606.3 542.3 L 606.6 537.7 L 606.5 533.1 L 606.0 528.6 L 605.2 524.2 L 604.0 520.0 L 602.5 516.0 L 600.8 512.3 L 598.7 508.7 L 596.4 505.4 L 594.0 502.4 L 591.4 499.6 L 588.6 497.1 L 585.7 494.7 L 582.7 492.7 L 579.7 490.8 L 576.5 489.2 L 573.4 487.8 L 570.2 486.5 L 567.0 485.5 L 563.8 484.7 L 560.6 484.0 L 557.5 483.5 L 554.3 483.1 L 551.2 482.9 L 548.2 482.9 L 545.2 483.0 L 542.3 483.3 L 539.4 483.6 L 536.7 484.1 L 534.0 484.8 L 531.5 485.5 L 529.1 486.4 L 526.8 487.3 L 524.7 488.4 L 522.7 489.6 L 520.8 490.8 L 519.2 492.1 L 517.8 493.5 L 516.5 494.8 L 515.0 495.6 L 513.7 496.5 L 512.6 497.3 L 511.5 498.3 L 510.6 499.2 L 509.8 500.2 L 509.2 501.2 L 508.7 502.2 L 508.4 503.1 L 508.2 504.1 L 508.1 505.1 L 508.2 506.1 L 508.4 507.1 L 508.7 508.0 L 509.1 508.9 L 509.7 509.7 L 510.4 510.5 L 511.2 511.3 L 512.0 512.0 Z" fill="url(#m)"/><path d="M 512.0 512.0 L 512.8 512.7 L 513.6 513.5 L 514.3 514.3 L 514.9 515.1 L 515.3 516.0 L 515.6 516.9 L 515.8 517.9 L 515.9 518.9 L 515.8 519.9 L 515.6 520.9 L 515.3 521.8 L 514.8 522.8 L 514.2 523.8 L 513.4 524.8 L 512.5 525.7 L 511.4 526.7 L 510.3 527.5 L 509.0 528.4 L 507.5 529.2 L 506.0 529.9 L 504.3 530.6 L 502.5 531.2 L 500.6 531.7 L 498.7 532.2 L 496.6 532.5 L 494.4 532.8 L 492.2 533.0 L 489.9 533.1 L 487.5 533.1 L 485.1 533.0 L 482.6 532.8 L 480.1 532.4 L 477.6 532.0 L 475.1 531.5 L 472.6 530.8 L 470.1 530.0 L 467.6 529.1 L 465.2 528.1 L 462.8 527.0 L 460.5 525.7 L 458.2 524.3 L 456.0 522.9 L 454.0 521.3 L 452.0 519.6 L 450.1 517.8 L 448.4 515.9 L 446.8 513.9 L 445.3 511.8 L 444.0 509.6 L 442.9 507.3 L 442.0 505.0 L 441.2 502.6 L 440.6 500.1 L 440.3 497.6 L 440.1 495.0 L 440.2 492.3 L 440.4 489.7 L 440.9 487.0 L 441.7 484.3 L 442.6 481.5 L 443.8 478.8 L 445.3 476.1 L 447.0 473.4 L 448.9 470.7 L 451.1 468.0 L 453.5 465.4 L 456.1 462.9 L 458.7 460.6 L 461.1 458.7 L 462.8 457.4 L 464.1 456.5 L 465.2 455.8 L 466.3 455.1 L 467.5 454.5 L 468.6 453.8 L 469.8 453.1 L 471.0 452.5 L 472.2 451.8 L 473.5 451.2 L 474.7 450.6 L 476.0 450.0 L 477.3 449.4 L 478.6 448.8 L 479.9 448.2 L 481.2 447.7 L 482.6 447.1 L 484.0 446.6 L 485.4 446.0 L 486.8 445.5 L 488.2 445.0 L 489.7 444.5 L 491.2 444.0 L 492.7 443.6 L 494.2 443.1 L 495.7 442.7 L 497.2 442.2 L 498.8 441.8 L 500.3 441.4 L 501.9 441.0 L 503.5 440.6 L 505.1 440.3 L 506.7 439.9 L 508.4 439.6 L 510.0 439.3 L 511.7 439.0 L 513.4 438.7 L 515.1 438.5 L 516.8 438.2 L 518.5 438.0 L 520.2 437.8 L 522.0 437.6 L 523.7 437.4 L 525.5 437.2 L 527.3 437.0 L 529.0 436.9 L 530.8 436.8 L 532.6 436.7 L 534.4 436.6 L 536.3 436.6 L 538.1 436.5 L 539.9 436.5 L 541.8 436.5 L 543.6 436.5 L 545.5 436.5 L 547.4 436.6 L 549.2 436.6 L 551.1 436.7 L 553.0 436.8 L 554.9 436.9 L 556.8 437.1 L 558.7 437.2 L 560.6 437.4 L 562.5 437.6 L 564.4 437.8 L 566.3 438.1 L 568.2 438.3 L 570.1 438.6 L 572.0 438.9 L 573.9 439.3 L 575.9 439.6 L 577.8 440.0 L 579.7 440.3 L 581.6 440.7 L 583.5 441.2 L 585.4 441.6 L 587.3 442.1 L 589.2 442.6 L 591.1 443.1 L 593.0 443.6 L 594.9 444.2 L 596.7 444.7 L 598.6 445.3 L 600.5 445.9 L 602.3 446.6 L 604.2 447.2 L 606.0 447.9 L 607.9 448.6 L 609.7 449.3 L 611.5 450.1 L 613.3 450.8 L 615.1 451.6 L 616.9 452.4 L 618.7 453.2 L 620.5 454.1 L 622.2 454.9 L 623.9 455.8 L 625.7 456.7 L 627.4 457.7 L 629.1 458.6 L 630.7 459.6 L 632.4 460.6 L 634.0 461.6 L 635.7 462.6 L 637.3 463.7 L 638.9 464.7 L 640.4 465.8 L 642.0 466.9 L 643.5 468.1 L 645.1 469.2 L 646.5 470.4 L 648.0 471.6 L 649.5 472.8 L 650.9 474.0 L 652.3 475.3 L 653.7 476.5 L 655.1 477.8 L 656.4 479.1 L 657.7 480.5 L 659.0 481.8 L 660.2 483.2 L 661.5 484.5 L 662.7 485.9 L 663.9 487.3 L 665.0 488.8 L 666.1 490.2 L 667.2 491.7 L 668.3 493.2 L 669.3 494.7 L 670.3 496.2 L 671.3 497.7 L 672.2 499.2 L 673.1 500.8 L 674.0 502.4 L 674.8 504.0 L 675.7 505.6 L 676.4 507.2 L 677.2 508.8 L 677.9 510.4 L 678.5 512.1 L 679.2 513.8 L 679.8 515.5 L 680.3 517.2 L 680.9 518.9 L 681.4 520.6 L 681.8 522.3 L 682.2 524.1 L 682.6 525.8 L 682.9 527.6 L 683.2 529.4 L 683.5 531.1 L 683.7 532.9 L 683.9 534.7 L 684.0 536.5 L 684.1 538.4 L 684.2 540.2 L 684.2 542.0 L 684.1 543.9 L 684.1 545.7 L 683.9 547.6 L 683.8 549.4 L 683.6 551.3 L 683.3 553.2 L 683.0 555.0 L 682.7 556.9 L 682.3 558.8 L 681.9 560.7 L 681.4 562.6 L 680.9 564.5 L 680.3 566.4 L 679.7 568.3 L 679.1 570.2 L 678.4 572.1 L 677.6 574.0 L 676.8 575.9 L 676.0 577.8 L 675.1 579.7 L 674.2 581.6 L 673.2 583.5 L 672.2 585.3 L 671.1 587.2 L 670.0 589.1 L 668.8 591.0 L 667.6 592.9 L 666.3 594.7 L 665.0 596.6 L 663.6 598.5 L 662.2 600.3 L 660.8 602.2 L 659.3 604.0 L 657.7 605.8 L 656.1 607.6 L 654.5 609.5 L 652.8 611.3 L 651.0 613.1 L 649.2 614.8 L 647.4 616.6 L 645.5 618.4 L 643.5 620.1 L 641.6 621.8 L 639.5 623.6 L 637.4 625.3 L 635.3 627.0 L 633.1 628.6 L 630.9 630.3 L 628.6 631.9 L 626.3 633.6 L 624.0 635.2 L 621.6 636.8 L 619.1 638.4 L 616.6 639.9 L 614.1 641.5 L 611.5 643.0 L 608.8 644.5 L 606.2 646.0 L 603.4 647.4 L 600.7 648.9 L 597.9 650.3 L 595.0 651.7 L 592.1 653.0 L 589.2 654.4 L 586.2 655.7 L 583.1 657.0 L 580.1 658.2 L 577.0 659.5 L 573.8 660.7 L 570.6 661.9 L 567.4 663.1 L 564.1 664.2 L 560.8 665.3 L 557.5 666.4 L 554.1 667.4 L 550.7 668.4 L 547.2 669.4 L 543.8 670.4 L 540.2 671.3 L 536.7 672.2 L 533.1 673.1 L 529.4 673.9 L 525.8 674.7 L 522.1 675.4 L 518.4 676.2 L 514.6 676.9 L 510.8 677.5 L 507.0 678.1 L 503.2 678.7 L 499.3 679.3 L 495.4 679.8 L 491.5 680.3 L 487.5 680.7 L 483.5 681.1 L 479.5 681.5 L 475.5 681.8 L 471.4 682.1 L 467.4 682.3 L 463.3 682.5 L 459.2 682.7 L 455.0 682.8 L 450.9 682.9 L 446.7 682.9 L 442.5 682.9 L 438.3 682.9 L 434.1 682.8 L 429.9 682.7 L 425.6 682.5 L 421.4 682.3 L 417.1 682.0 L 412.8 681.7 L 408.5 681.4 L 404.2 681.0 L 399.9 680.6 L 395.6 680.1 L 391.3 679.6 L 387.0 679.0 L 382.7 678.4 L 378.3 677.7 L 374.0 677.0 L 369.7 676.3 L 365.4 675.5 L 361.0 674.6 L 356.7 673.7 L 352.4 672.8 L 348.1 671.8 L 343.8 670.8 L 339.5 669.7 L 335.2 668.6 L 330.9 667.4 L 326.6 666.2 L 322.4 664.9 L 318.1 663.6 L 313.9 662.2 L 309.7 660.8 L 305.5 659.4 L 301.3 657.8 L 297.1 656.3 L 293.0 654.7 L 288.8 653.0 L 284.7 651.3 L 280.7 649.6 L 276.6 647.8 L 272.6 646.0 L 268.6 644.1 L 264.6 642.1 L 260.6 640.1 L 256.7 638.1 L 252.9 636.0 L 249.0 633.9 L 245.2 631.7 L 241.4 629.5 L 237.7 627.3 L 234.0 624.9 L 230.3 622.6 L 226.7 620.2 L 223.1 617.7 L 219.5 615.2 L 216.1 612.7 L 212.6 610.1 L 209.2 607.5 L 205.8 604.8 L 202.5 602.1 L 199.3 599.4 L 196.1 596.6 L 192.9 593.7 L 189.8 590.8 L 186.7 587.9 L 183.8 584.9 L 180.8 581.9 L 177.9 578.8 L 175.1 575.8 L 172.4 572.6 L 169.7 569.4 L 167.0 566.2 L 164.5 563.0 L 162.0 559.7 L 159.5 556.4 L 157.1 553.0 L 154.8 549.6 L 152.6 546.1 L 150.5 542.7 L 148.4 539.2 L 146.3 535.6 L 144.4 532.0 L 142.5 528.4 L 140.7 524.8 L 139.0 521.1 L 137.4 517.4 L 135.8 513.7 L 134.3 509.9 L 132.9 506.1 L 131.6 502.3 L 130.4 498.4 L 129.2 494.5 L 128.2 490.6 L 127.2 486.7 L 126.3 482.8 L 125.5 478.8 L 124.8 474.8 L 124.2 470.7 L 123.6 466.7 L 123.1 462.6 L 123.1 462.6 L 123.0 466.8 L 122.9 470.9 L 123.0 475.1 L 123.2 479.2 L 123.5 483.3 L 124.0 487.5 L 124.5 491.6 L 125.1 495.7 L 125.8 499.9 L 126.6 504.0 L 127.5 508.1 L 128.5 512.1 L 129.5 516.2 L 130.7 520.3 L 132.0 524.3 L 133.3 528.3 L 134.8 532.4 L 136.3 536.3 L 137.9 540.3 L 139.6 544.3 L 141.4 548.2 L 143.2 552.1 L 145.2 556.0 L 147.2 559.8 L 149.3 563.7 L 151.5 567.5 L 153.8 571.3 L 156.1 575.0 L 158.5 578.7 L 161.0 582.4 L 163.6 586.1 L 166.2 589.7 L 168.9 593.3 L 171.7 596.8 L 174.6 600.4 L 177.5 603.9 L 180.4 607.3 L 183.5 610.7 L 186.6 614.1 L 189.7 617.5 L 193.0 620.8 L 196.2 624.0 L 199.6 627.3 L 203.0 630.5 L 206.4 633.6 L 209.9 636.7 L 213.5 639.8 L 217.1 642.8 L 220.8 645.8 L 224.5 648.8 L 228.2 651.7 L 232.0 654.5 L 235.9 657.3 L 239.8 660.1 L 243.7 662.8 L 247.7 665.5 L 251.7 668.2 L 255.8 670.8 L 259.9 673.3 L 264.0 675.8 L 268.2 678.3 L 272.4 680.7 L 276.6 683.1 L 280.9 685.4 L 285.2 687.7 L 289.5 689.9 L 293.8 692.1 L 298.2 694.3 L 302.6 696.4 L 307.1 698.4 L 311.6 700.4 L 316.0 702.4 L 320.5 704.3 L 325.1 706.2 L 329.6 708.0 L 334.2 709.8 L 338.8 711.5 L 343.4 713.2 L 348.0 714.8 L 352.6 716.4 L 357.3 717.9 L 361.9 719.4 L 366.6 720.9 L 371.3 722.2 L 376.0 723.6 L 380.7 724.9 L 385.4 726.1 L 390.1 727.4 L 394.9 728.5 L 399.6 729.6 L 404.3 730.7 L 409.1 731.7 L 413.8 732.7 L 418.5 733.6 L 423.3 734.5 L 428.0 735.3 L 432.8 736.1 L 437.5 736.8 L 442.2 737.5 L 447.0 738.1 L 451.7 738.7 L 456.4 739.3 L 461.2 739.8 L 465.9 740.2 L 470.6 740.7 L 475.3 741.0 L 480.0 741.3 L 484.7 741.6 L 489.3 741.8 L 494.0 742.0 L 498.6 742.1 L 503.3 742.2 L 507.9 742.2 L 512.5 742.2 L 517.1 742.2 L 521.7 742.1 L 526.2 741.9 L 530.8 741.7 L 535.3 741.5 L 539.9 741.2 L 544.4 740.8 L 548.8 740.5 L 553.3 740.0 L 557.7 739.6 L 562.2 739.0 L 566.6 738.5 L 570.9 737.8 L 575.3 737.2 L 579.6 736.5 L 584.0 735.7 L 588.3 734.9 L 592.5 734.1 L 596.8 733.2 L 601.0 732.2 L 605.2 731.3 L 609.4 730.2 L 613.5 729.1 L 617.6 728.0 L 621.7 726.8 L 625.8 725.6 L 629.8 724.3 L 633.8 723.0 L 637.8 721.6 L 641.8 720.2 L 645.7 718.7 L 649.6 717.2 L 653.4 715.6 L 657.3 714.0 L 661.1 712.3 L 664.8 710.6 L 668.6 708.8 L 672.3 707.0 L 675.9 705.1 L 679.6 703.2 L 683.2 701.2 L 686.7 699.2 L 690.2 697.1 L 693.7 695.0 L 697.1 692.7 L 700.1 690.0 L 703.2 687.3 L 706.1 684.6 L 709.0 681.8 L 711.9 679.0 L 714.7 676.2 L 717.4 673.3 L 720.1 670.3 L 722.7 667.3 L 725.3 664.3 L 727.8 661.2 L 730.3 658.1 L 732.6 655.0 L 735.0 651.8 L 737.2 648.5 L 739.4 645.2 L 741.5 641.9 L 743.6 638.6 L 745.5 635.2 L 747.5 631.8 L 749.3 628.3 L 751.0 624.8 L 752.7 621.3 L 754.3 617.7 L 755.9 614.1 L 757.3 610.5 L 758.7 606.8 L 759.9 603.1 L 761.1 599.4 L 762.3 595.7 L 763.3 592.0 L 764.2 588.2 L 765.1 584.4 L 765.8 580.6 L 766.5 576.8 L 767.1 573.0 L 767.6 569.2 L 768.0 565.4 L 768.3 561.6 L 768.5 557.7 L 768.7 553.9 L 768.7 550.1 L 768.6 546.3 L 768.5 542.5 L 768.3 538.8 L 768.0 535.0 L 767.5 531.3 L 767.1 527.6 L 766.5 523.9 L 765.8 520.3 L 765.1 516.7 L 764.2 513.1 L 763.3 509.5 L 762.3 506.0 L 761.3 502.6 L 760.1 499.2 L 758.9 495.8 L 757.7 492.4 L 756.3 489.2 L 754.9 485.9 L 753.4 482.7 L 751.9 479.6 L 750.3 476.5 L 748.6 473.5 L 746.9 470.5 L 745.2 467.6 L 743.4 464.7 L 741.5 461.9 L 739.6 459.1 L 737.7 456.4 L 735.7 453.7 L 733.6 451.1 L 731.6 448.6 L 729.5 446.1 L 727.3 443.7 L 725.1 441.3 L 722.9 438.9 L 720.7 436.7 L 718.4 434.4 L 716.2 432.3 L 713.8 430.1 L 711.3 428.3 L 708.6 426.5 L 706.0 424.8 L 703.3 423.2 L 700.7 421.7 L 698.0 420.1 L 695.3 418.7 L 692.6 417.2 L 689.9 415.9 L 687.2 414.6 L 684.5 413.3 L 681.8 412.1 L 679.1 410.9 L 676.4 409.8 L 673.7 408.7 L 671.0 407.6 L 668.3 406.6 L 665.6 405.7 L 662.9 404.8 L 660.2 403.9 L 657.5 403.0 L 654.8 402.2 L 652.2 401.5 L 649.5 400.7 L 646.8 400.0 L 644.1 399.4 L 641.5 398.7 L 638.8 398.1 L 636.1 397.6 L 633.5 397.1 L 630.8 396.6 L 628.2 396.1 L 625.6 395.7 L 622.9 395.3 L 620.3 394.9 L 617.7 394.5 L 615.1 394.2 L 612.5 393.9 L 609.9 393.7 L 607.3 393.4 L 604.8 393.2 L 602.2 393.0 L 599.7 392.9 L 597.1 392.8 L 594.6 392.7 L 592.1 392.6 L 589.5 392.5 L 587.0 392.5 L 584.6 392.5 L 582.1 392.5 L 579.6 392.5 L 577.1 392.6 L 574.7 392.7 L 572.3 392.8 L 569.8 392.9 L 567.4 393.1 L 565.0 393.3 L 562.6 393.5 L 560.3 393.7 L 557.9 393.9 L 555.6 394.2 L 553.2 394.4 L 550.9 394.7 L 548.6 395.1 L 546.3 395.4 L 544.1 395.8 L 541.8 396.1 L 539.5 396.5 L 537.3 397.0 L 535.1 397.4 L 532.9 397.8 L 530.7 398.3 L 528.6 398.8 L 526.4 399.3 L 524.3 399.8 L 522.2 400.4 L 520.1 400.9 L 518.0 401.5 L 515.9 402.1 L 513.9 402.7 L 511.8 403.4 L 509.8 404.0 L 507.8 404.7 L 505.9 405.4 L 503.9 406.1 L 502.0 406.8 L 500.1 407.5 L 498.2 408.2 L 496.3 409.0 L 494.4 409.8 L 492.6 410.6 L 490.8 411.4 L 489.0 412.2 L 487.2 413.0 L 485.5 413.9 L 483.7 414.8 L 482.0 415.6 L 480.3 416.5 L 478.7 417.4 L 477.0 418.4 L 475.4 419.3 L 473.8 420.3 L 472.3 421.2 L 470.7 422.2 L 469.2 423.2 L 467.7 424.2 L 466.2 425.2 L 464.8 426.3 L 463.4 427.3 L 462.0 428.4 L 460.6 429.4 L 459.3 430.5 L 457.9 431.6 L 456.6 432.7 L 455.4 433.8 L 454.1 434.9 L 452.9 436.1 L 451.5 437.4 L 449.6 439.1 L 447.4 441.2 L 444.6 443.9 L 441.5 447.0 L 438.4 450.6 L 435.4 454.3 L 432.6 458.2 L 430.2 462.1 L 428.1 466.2 L 426.3 470.3 L 424.9 474.5 L 423.8 478.7 L 423.0 482.9 L 422.6 487.1 L 422.6 491.3 L 422.9 495.3 L 423.5 499.3 L 424.5 503.1 L 425.7 506.8 L 427.2 510.3 L 429.0 513.6 L 431.0 516.7 L 433.1 519.6 L 435.5 522.3 L 438.0 524.7 L 440.6 527.0 L 443.3 529.1 L 446.2 530.9 L 449.1 532.6 L 452.0 534.1 L 455.0 535.3 L 458.0 536.5 L 461.0 537.4 L 464.1 538.2 L 467.1 538.8 L 470.2 539.2 L 473.2 539.5 L 476.1 539.7 L 479.0 539.7 L 481.9 539.6 L 484.7 539.3 L 487.4 538.9 L 490.0 538.4 L 492.5 537.8 L 494.9 537.0 L 497.1 536.1 L 499.3 535.2 L 501.3 534.1 L 503.1 533.0 L 504.7 531.7 L 506.2 530.4 L 507.5 529.2 L 509.0 528.4 L 510.3 527.5 L 511.4 526.7 L 512.5 525.7 L 513.4 524.8 L 514.2 523.8 L 514.8 522.8 L 515.3 521.8 L 515.6 520.9 L 515.8 519.9 L 515.9 518.9 L 515.8 517.9 L 515.6 516.9 L 515.3 516.0 L 514.9 515.1 L 514.3 514.3 L 513.6 513.5 L 512.8 512.7 L 512.0 512.0 Z" fill="url(#m)"/></svg>